<svg xmlns="http://www.w3.org/2000/svg" viewBox="0 0 100 100" width="100" height="100">
  <defs>
    <linearGradient id="greenGradient" x1="0%" y1="0%" x2="100%" y2="100%">
      <stop offset="0%" style="stop-color:#4caf50;stop-opacity:1" />
      <stop offset="100%" style="stop-color:#2e7d32;stop-opacity:1" />
    </linearGradient>
  </defs>

  <!-- Background circle -->
  <circle cx="50" cy="50" r="45" fill="url(#greenGradient)"/>

  <!-- Quote mark / Citation symbol -->
  <g fill="white">
    <!-- Left quote -->
    <path d="M25 35 Q25 25 35 25 L40 25 Q45 25 45 30 L45 45 Q45 55 35 55 L30 55 Q25 55 25 50 L25 35 Z" />
    <path d="M25 55 L30 65" stroke="white" stroke-width="4" fill="none" stroke-linecap="round"/>

    <!-- Right quote -->
    <path d="M55 35 Q55 25 65 25 L70 25 Q75 25 75 30 L75 45 Q75 55 65 55 L60 55 Q55 55 55 50 L55 35 Z" />
    <path d="M55 55 L60 65" stroke="white" stroke-width="4" fill="none" stroke-linecap="round"/>
  </g>

  <!-- Checkmark for verification -->
  <path d="M35 75 L45 85 L70 55" stroke="white" stroke-width="5" fill="none" stroke-linecap="round" stroke-linejoin="round"/>
</svg>
